<svg width="18" height="18" viewBox="0 0 18 18" fill="none" xmlns="http://www.w3.org/2000/svg">
<g clip-path="url(#clip0_997_147)">
<path d="M5.25 3.75H9.75C10.4462 3.75 11.1139 4.02656 11.6062 4.51884C12.0984 5.01113 12.375 5.67881 12.375 6.375C12.375 7.07119 12.0984 7.73887 11.6062 8.23115C11.1139 8.72344 10.4462 9 9.75 9H5.25V3.75Z" stroke="#6C6F75" stroke-width="1.25" stroke-linecap="round" stroke-linejoin="round"/>
<path d="M9.75 9H10.5C11.1962 9 11.8639 9.27656 12.3562 9.76884C12.8484 10.2611 13.125 10.9288 13.125 11.625C13.125 12.3212 12.8484 12.9889 12.3562 13.4812C11.8639 13.9734 11.1962 14.25 10.5 14.25H5.25V9" stroke="#6C6F75" stroke-width="1.25" stroke-linecap="round" stroke-linejoin="round"/>
</g>
<defs>
<clipPath id="clip0_997_147">
<rect width="18" height="18" fill="white"/>
</clipPath>
</defs>
</svg>
