<svg width="16" height="16" viewBox="0 0 16 16" fill="none" xmlns="http://www.w3.org/2000/svg">
<path d="M11.6 2.4C12.1305 2.4 12.6392 2.61072 13.0142 2.98579C13.3893 3.36086 13.6 3.86957 13.6 4.4V7.68C13.3443 7.54918 13.0764 7.44387 12.8 7.3656V5.6H3.20002V11.6C3.20002 11.9183 3.32645 12.2235 3.5515 12.4485C3.77654 12.6736 4.08176 12.8 4.40002 12.8H7.36562C7.44482 13.0792 7.54962 13.3464 7.68002 13.6H4.40002C3.86959 13.6 3.36088 13.3893 2.98581 13.0142C2.61074 12.6391 2.40002 12.1304 2.40002 11.6V4.4C2.40002 3.86957 2.61074 3.36086 2.98581 2.98579C3.36088 2.61072 3.86959 2.4 4.40002 2.4H11.6ZM11.6 3.2H4.40002C4.08176 3.2 3.77654 3.32643 3.5515 3.55147C3.32645 3.77652 3.20002 4.08174 3.20002 4.4V4.8H12.8V4.4C12.8 4.08174 12.6736 3.77652 12.4486 3.55147C12.2235 3.32643 11.9183 3.2 11.6 3.2ZM15.2 11.6C15.2 12.5548 14.8207 13.4705 14.1456 14.1456C13.4705 14.8207 12.5548 15.2 11.6 15.2C10.6452 15.2 9.72957 14.8207 9.05444 14.1456C8.37931 13.4705 8.00002 12.5548 8.00002 11.6C8.00002 10.6452 8.37931 9.72955 9.05444 9.05442C9.72957 8.37929 10.6452 8 11.6 8C12.5548 8 13.4705 8.37929 14.1456 9.05442C14.8207 9.72955 15.2 10.6452 15.2 11.6ZM12 10C12 9.89392 11.9579 9.79217 11.8829 9.71716C11.8079 9.64214 11.7061 9.6 11.6 9.6C11.4939 9.6 11.3922 9.64214 11.3172 9.71716C11.2422 9.79217 11.2 9.89392 11.2 10V11.2H10C9.89394 11.2 9.7922 11.2421 9.71718 11.3172C9.64217 11.3922 9.60002 11.4939 9.60002 11.6C9.60002 11.7061 9.64217 11.8078 9.71718 11.8828C9.7922 11.9579 9.89394 12 10 12H11.2V13.2C11.2 13.3061 11.2422 13.4078 11.3172 13.4828C11.3922 13.5579 11.4939 13.6 11.6 13.6C11.7061 13.6 11.8079 13.5579 11.8829 13.4828C11.9579 13.4078 12 13.3061 12 13.2V12H13.2C13.3061 12 13.4079 11.9579 13.4829 11.8828C13.5579 11.8078 13.6 11.7061 13.6 11.6C13.6 11.4939 13.5579 11.3922 13.4829 11.3172C13.4079 11.2421 13.3061 11.2 13.2 11.2H12V10Z" fill="#94989E"/>
</svg>
