<svg width="18" height="18" viewBox="0 0 18 18" fill="none" xmlns="http://www.w3.org/2000/svg">
<g clip-path="url(#clip0_997_125)">
<path d="M11.25 5.25L6.37502 10.125C6.07665 10.4234 5.90903 10.828 5.90903 11.25C5.90903 11.672 6.07665 12.0766 6.37502 12.375C6.67339 12.6734 7.07806 12.841 7.50002 12.841C7.92198 12.841 8.32665 12.6734 8.62502 12.375L13.5 7.5C14.0968 6.90326 14.432 6.09391 14.432 5.25C14.432 4.40609 14.0968 3.59674 13.5 3C12.9033 2.40326 12.0939 2.06802 11.25 2.06802C10.4061 2.06802 9.59676 2.40326 9.00002 3L4.12502 7.875C3.22992 8.77011 2.72705 9.98413 2.72705 11.25C2.72705 12.5159 3.22992 13.7299 4.12502 14.625C5.02013 15.5201 6.23415 16.023 7.50002 16.023C8.76589 16.023 9.97992 15.5201 10.875 14.625L15.75 9.75" stroke="#6C6F75" stroke-width="1.25" stroke-linecap="round" stroke-linejoin="round"/>
</g>
<defs>
<clipPath id="clip0_997_125">
<rect width="18" height="18" fill="white"/>
</clipPath>
</defs>
</svg>
