<svg width="16" height="16" viewBox="0 0 16 16" fill="none" xmlns="http://www.w3.org/2000/svg">
<path d="M13.3745 12.465C14.0926 11.6011 14.592 10.5769 14.8305 9.47909C15.069 8.38131 15.0396 7.24223 14.7448 6.15821C14.45 5.07419 13.8985 4.07711 13.1368 3.25134C12.3752 2.42556 11.4258 1.79538 10.3691 1.41409C9.31242 1.03281 8.17943 0.911639 7.06598 1.06084C5.95254 1.21004 4.89141 1.62522 3.97236 2.27125C3.05331 2.91729 2.30337 3.77517 1.786 4.77234C1.26862 5.7695 0.999019 6.87661 1 8C1.00038 9.63309 1.57588 11.2139 2.6255 12.465L2.6155 12.4735C2.6505 12.5155 2.6905 12.5515 2.7265 12.593C2.7715 12.6445 2.82 12.693 2.8665 12.743C3.0065 12.895 3.1505 13.041 3.3015 13.178C3.3475 13.22 3.395 13.259 3.4415 13.299C3.6015 13.437 3.766 13.568 3.9365 13.69C3.9585 13.705 3.9785 13.7245 4.0005 13.74V13.734C5.17156 14.5581 6.56855 15.0004 8.0005 15.0004C9.43245 15.0004 10.8295 14.5581 12.0005 13.734V13.74C12.0225 13.7245 12.042 13.705 12.0645 13.69C12.2345 13.5675 12.3995 13.437 12.5595 13.299C12.606 13.259 12.6535 13.2195 12.6995 13.178C12.8505 13.0405 12.9945 12.895 13.1345 12.743C13.181 12.693 13.229 12.6445 13.2745 12.593C13.31 12.5515 13.3505 12.5155 13.3855 12.473L13.3745 12.465ZM8 4C8.44501 4 8.88003 4.13196 9.25004 4.37919C9.62005 4.62643 9.90844 4.97783 10.0787 5.38896C10.249 5.8001 10.2936 6.2525 10.2068 6.68895C10.12 7.12541 9.90566 7.52632 9.59099 7.84099C9.27633 8.15566 8.87541 8.36995 8.43896 8.45677C8.0025 8.54358 7.5501 8.49902 7.13897 8.32873C6.72783 8.15843 6.37643 7.87004 6.1292 7.50003C5.88196 7.13002 5.75 6.69501 5.75 6.25C5.75 5.65326 5.98706 5.08097 6.40901 4.65901C6.83097 4.23705 7.40327 4 8 4ZM4.0035 12.465C4.01218 11.8085 4.27898 11.1818 4.74618 10.7205C5.21339 10.2592 5.84343 10.0003 6.5 10H9.5C10.1566 10.0003 10.7866 10.2592 11.2538 10.7205C11.721 11.1818 11.9878 11.8085 11.9965 12.465C10.8999 13.4532 9.47613 14 8 14C6.52387 14 5.10008 13.4532 4.0035 12.465Z" fill="#94989E"/>
</svg>
